<?xml version="1.0" encoding="UTF-8"?>
<!DOCTYPE svg PUBLIC "-//W3C//DTD SVG 1.1//EN" "http://www.w3.org/Graphics/SVG/1.1/DTD/svg11.dtd">
<!-- Creator: CorelDRAW 2019 (64-Bit) -->
<svg xmlns="http://www.w3.org/2000/svg" xml:space="preserve" width="16px" height="16px" version="1.1" style="shape-rendering:geometricPrecision; text-rendering:geometricPrecision; image-rendering:optimizeQuality; fill-rule:evenodd; clip-rule:evenodd"
viewBox="0 0 0.83 0.83"
 xmlns:xlink="http://www.w3.org/1999/xlink">
 <defs>
  <style type="text/css">
   <![CDATA[
    .fil3 {fill:#FDC816}
    .fil2 {fill:#FF4848}
    .fil4 {fill:#FEFEFE;fill-rule:nonzero}
   ]]>
  </style>
 </defs>
 <g id="Слой_x0020_1">
  <metadata id="CorelCorpID_0Corel-Layer"/>
  <path class="fil2" d="M0.35 0.39l0 -0.11c0,-0.04 0,-0.07 -0.01,-0.09 0,-0.02 -0.01,-0.04 -0.03,-0.05 -0.01,-0.01 -0.04,-0.01 -0.07,-0.01l-0.05 0 0 0.41c0.05,-0.05 0.1,-0.1 0.16,-0.15z"/>
  <path class="fil3" d="M0 0.78l0.3 -0.01c0.13,0 0.24,-0.03 0.32,-0.08l0 -0.47c-0.06,0.02 -0.11,0.06 -0.17,0.1l0 0.2c0,0.08 -0.02,0.14 -0.05,0.17 -0.03,0.04 -0.08,0.06 -0.15,0.06l-0.16 0 0 -0.1c-0.04,0.05 -0.07,0.09 -0.09,0.13zm0.71 -0.17c0.08,-0.08 0.11,-0.17 0.11,-0.24 0,-0.12 -0.04,-0.17 -0.11,-0.17l0 0.41zm-0.36 -0.22c-0.06,0.05 -0.11,0.1 -0.16,0.15l0 0.14 0.05 0c0.03,0 0.06,-0.01 0.07,-0.02 0.02,-0.01 0.03,-0.03 0.03,-0.05 0.01,-0.03 0.01,-0.06 0.01,-0.11l0 -0.11z"/>
  <path class="fil4" d="M0.09 0.06l0.15 0c0.08,0 0.13,0.01 0.16,0.05 0.03,0.03 0.05,0.09 0.05,0.16l0 0.25c0,0.08 -0.02,0.14 -0.05,0.17 -0.03,0.04 -0.08,0.06 -0.15,0.06l-0.16 0 0 -0.69zm0.15 0.62c0.03,0 0.06,-0.01 0.07,-0.02 0.02,-0.01 0.03,-0.03 0.03,-0.05 0.01,-0.03 0.01,-0.06 0.01,-0.11l0 -0.22c0,-0.04 0,-0.07 -0.01,-0.09 0,-0.02 -0.01,-0.04 -0.03,-0.05 -0.01,-0.01 -0.04,-0.01 -0.07,-0.01l-0.05 0 0 0.55 0.05 0zm0.38 -0.55l-0.12 0 0 -0.07 0.33 0 0 0.07 -0.12 0 0 0.62 -0.09 0 0 -0.62z"/>
 </g>
</svg>
