<?xml version="1.0" encoding="UTF-8"?>
<!DOCTYPE svg PUBLIC "-//W3C//DTD SVG 1.1//EN" "http://www.w3.org/Graphics/SVG/1.1/DTD/svg11.dtd">
<!-- Creator: CorelDRAW 2019 (64-Bit) -->
<svg xmlns="http://www.w3.org/2000/svg" xml:space="preserve" width="312px" height="312px" version="1.1" style="shape-rendering:geometricPrecision; text-rendering:geometricPrecision; image-rendering:optimizeQuality; fill-rule:evenodd; clip-rule:evenodd"
viewBox="0 0 16.15 16.15"
 xmlns:xlink="http://www.w3.org/1999/xlink">
 <defs>
  <style type="text/css">
   <![CDATA[
    .fil1 {fill:#5B5B5B}
    .fil3 {fill:#FDC816}
    .fil0 {fill:#595959}
    .fil2 {fill:#FF4848}
    .fil4 {fill:#FEFEFE;fill-rule:nonzero}
   ]]>
  </style>
 </defs>
 <rect class="fil0" x="-284.43" y="-162.98" width="256.78" height="181.58"/>
 <g id="Слой_x0020_1">
  <metadata id="CorelCorpID_0Corel-Layer"/>
  <path class="fil1" d="M1.75 1.09l2.94 0c1.46,0 2.49,0.33 3.1,1 0.6,0.67 0.91,1.71 0.91,3.13l0 1c1.17,-0.83 2.31,-1.49 3.34,-1.88l0 -1.85 -2.29 0 0 -1.4 6.4 0 0 -1.09 -16.15 0 0 15.11 5.78 -0.02c2.57,-0.01 4.66,-0.68 6.26,-1.67l0 1.2 1.89 0 0 -2.73c1.43,-1.5 2.14,-3.27 2.14,-4.72 0,-2.25 -0.84,-3.17 -2.14,-3.22l0 -1.46 2.22 0 0 13.66 -16.15 0 0 -1.04c0.38,-0.68 0.98,-1.52 1.75,-2.44l0 -11.58z"/>
  <path class="fil2" d="M6.79 7.68l0 -2.23c0,-0.77 -0.04,-1.35 -0.14,-1.76 -0.09,-0.41 -0.29,-0.71 -0.59,-0.9 -0.3,-0.2 -0.77,-0.3 -1.41,-0.3l-1.01 0 0 8.1c0.97,-0.99 2.05,-1.99 3.15,-2.91z"/>
  <path class="fil3" d="M0 15.11l5.78 -0.02c2.57,-0.01 4.66,-0.68 6.26,-1.67l0 -9.08c-1.03,0.39 -2.17,1.05 -3.34,1.88l0 3.98c0,1.49 -0.3,2.6 -0.9,3.33 -0.59,0.73 -1.58,1.09 -2.96,1.09l-3.09 0 0 -1.95c-0.77,0.92 -1.37,1.76 -1.75,2.44zm13.93 -3.22c1.43,-1.5 2.14,-3.27 2.14,-4.72 0,-2.25 -0.84,-3.17 -2.14,-3.22l0 7.94zm-7.14 -4.21c-1.1,0.92 -2.18,1.92 -3.15,2.91l0 2.68 1.06 0c0.66,0 1.14,-0.13 1.43,-0.38 0.3,-0.26 0.48,-0.61 0.55,-1.05 0.08,-0.44 0.11,-1.1 0.11,-1.99l0 -2.17z"/>
  <path class="fil4" d="M1.75 1.09l2.94 0c1.46,0 2.49,0.33 3.1,1 0.6,0.67 0.91,1.71 0.91,3.13l0 4.98c0,1.49 -0.3,2.6 -0.9,3.33 -0.59,0.73 -1.58,1.09 -2.96,1.09l-3.09 0 0 -13.53zm2.95 12.18c0.66,0 1.14,-0.13 1.43,-0.38 0.3,-0.26 0.48,-0.61 0.55,-1.05 0.08,-0.44 0.11,-1.1 0.11,-1.99l0 -4.4c0,-0.77 -0.04,-1.35 -0.14,-1.76 -0.09,-0.41 -0.29,-0.71 -0.59,-0.9 -0.3,-0.2 -0.77,-0.3 -1.41,-0.3l-1.01 0 0 10.78 1.06 0zm7.34 -10.78l-2.29 0 0 -1.4 6.4 0 0 1.4 -2.22 0 0 12.13 -1.89 0 0 -12.13z"/>
 </g>
</svg>
