<?xml version="1.0" encoding="UTF-8"?>
<!DOCTYPE svg PUBLIC "-//W3C//DTD SVG 1.1//EN" "http://www.w3.org/Graphics/SVG/1.1/DTD/svg11.dtd">
<!-- Creator: CorelDRAW 2019 (64-Bit) -->
<svg xmlns="http://www.w3.org/2000/svg" xml:space="preserve" width="839px" height="729px" version="1.1" style="shape-rendering:geometricPrecision; text-rendering:geometricPrecision; image-rendering:optimizeQuality; fill-rule:evenodd; clip-rule:evenodd"
viewBox="0 0 112.31 97.51"
 xmlns:xlink="http://www.w3.org/1999/xlink">
 <defs>
  <style type="text/css">
   <![CDATA[
    .fil2 {fill:#FDC816}
    .fil0 {fill:#595959}
    .fil1 {fill:#FF4848}
    .fil3 {fill:#FEFEFE;fill-rule:nonzero}
   ]]>
  </style>
 </defs>
 <rect class="fil0" x="-751.51" y="-187.83" width="663.83" height="469.42"/>
 <g id="Слой_x0020_1">
  <metadata id="CorelCorpID_0Corel-Layer"/>
  <polygon class="fil1" points="20.24,76.04 18.57,6.34 46.72,6.34 55.87,19.87 53.69,66.56 53.69,83.01 39.75,87.84 20.24,87.84 "/>
  <path class="fil2" d="M0 97.51l40.22 -0.16c47.77,-0.19 71.52,-33.05 71.52,-55.07 0,-62.72 -93.83,22.76 -111.74,55.23z"/>
  <path class="fil3" d="M12.15 0l20.45 0c10.15,0 17.33,2.32 21.56,6.97 4.22,4.65 6.33,11.89 6.33,21.73l0 34.63c0,10.38 -2.07,18.1 -6.22,23.18 -4.14,5.07 -11.02,7.61 -20.62,7.61l-21.5 0 0 -94.12zm20.57 84.71c4.57,0 7.88,-0.89 9.93,-2.68 2.05,-1.78 3.33,-4.2 3.84,-7.26 0.5,-3.06 0.75,-7.69 0.75,-13.88l0 -30.56c0,-5.35 -0.33,-9.43 -0.99,-12.26 -0.65,-2.83 -2.03,-4.92 -4.12,-6.28 -2.09,-1.35 -5.35,-2.03 -9.76,-2.03l-7.09 0 0 74.95 7.44 0z"/>
  <polygon id="1" class="fil3" points="83.73,9.76 67.81,9.76 67.81,0 112.31,0 112.31,9.76 96.86,9.76 96.86,94.12 83.73,94.12 "/>
 </g>
</svg>
