<?xml version="1.0" standalone="no"?>
<!DOCTYPE svg PUBLIC "-//W3C//DTD SVG 20010904//EN"
 "http://www.w3.org/TR/2001/REC-SVG-20010904/DTD/svg10.dtd">
<svg version="1.0" xmlns="http://www.w3.org/2000/svg"
 width="700.000000pt" height="700.000000pt" viewBox="0 0 700.000000 700.000000"
 preserveAspectRatio="xMidYMid meet">
<metadata>
Created by potrace 1.11, written by Peter Selinger 2001-2013
</metadata>
<g transform="translate(0.000000,700.000000) scale(0.100000,-0.100000)"
fill="#000000" stroke="none">
<path d="M0 3737 c0 -2525 3 -3266 12 -3275 9 -9 9 -12 0 -12 -9 0 -12 -57
-12 -225 l0 -225 3500 0 3500 0 0 3260 0 3260 -1385 0 -1386 0 3 -300 c2 -165
0 -300 -4 -300 -5 0 -8 137 -8 305 l0 305 1390 0 1390 0 0 235 0 235 -3500 0
-3500 0 0 -3263z m1995 2786 c-703 -7 -1245 -7 -1245 0 0 4 341 6 758 5 416
-2 636 -4 487 -5z m358 -10 c-13 -2 -35 -2 -50 0 -16 2 -5 4 22 4 28 0 40 -2
28 -4z m152 -13 c18 -5 -1 -6 -45 -3 -41 3 -77 7 -79 9 -8 7 94 2 124 -6z
m110 -20 c27 -7 27 -8 5 -8 -14 0 -38 4 -55 8 -27 7 -27 8 -5 8 14 0 39 -4 55
-8z m-1858 -42 c-3 -7 -5 -2 -5 12 0 14 2 19 5 13 2 -7 2 -19 0 -25z m2005 8
c413 -114 667 -323 828 -682 48 -106 34 -88 -28 37 -173 346 -403 526 -817
640 -55 15 -93 28 -85 28 8 1 54 -10 102 -23z m-2005 -88 c-3 -7 -5 -2 -5 12
0 14 2 19 5 13 2 -7 2 -19 0 -25z m0 -80 c-3 -7 -5 -2 -5 12 0 14 2 19 5 13 2
-7 2 -19 0 -25z m0 -95 c-3 -10 -5 -2 -5 17 0 19 2 27 5 18 2 -10 2 -26 0 -35z
m0 -90 c-2 -16 -4 -5 -4 22 0 28 2 40 4 28 2 -13 2 -35 0 -50z m0 -140 c-2
-16 -4 -3 -4 27 0 30 2 43 4 28 2 -16 2 -40 0 -55z m0 -70 c-3 -10 -5 -4 -5
12 0 17 2 24 5 18 2 -7 2 -21 0 -30z m889 -3401 c234 241 694 675 968 912 50
43 105 90 121 105 17 14 59 51 95 81 36 30 75 64 87 75 l23 20 3 555 c1 305 2
51 2 -565 0 -751 -1 -937 -5 -564 l-5 557 -168 -144 c-327 -279 -618 -547
-964 -888 l-223 -219 0 -578 0 -579 178 -3 177 -3 -180 1 -180 0 0 2340 c0
2333 0 2335 5 587 l5 -1753 61 63z m537 3431 c-23 -2 -64 -2 -90 0 -26 2 -7 3
42 3 50 0 71 -1 48 -3z m3035 -2615 c-1 -1443 -5 -2512 -8 -2376 l-5 248 -60
-36 c-77 -47 -379 -204 -391 -204 -5 0 60 36 145 80 85 44 190 101 233 126
l78 46 0 1966 c0 1082 0 2148 0 2370 0 221 2 402 5 402 3 0 4 -1180 3 -2622z
m870 1990 l47 -2 -47 -3 -48 -4 0 -1712 1 -1712 40 45 c85 95 188 218 247 296
134 178 297 449 376 627 21 48 41 85 43 83 3 -2 -27 -69 -65 -148 -155 -316
-368 -624 -599 -868 l-43 -45 0 -592 0 -593 -417 2 -418 3 413 2 412 3 2 2628
c2 1445 4 2484 5 2310 l3 -318 48 -2z m-3753 611 c20 -5 9 -6 -30 -2 -33 3
-62 7 -64 9 -8 7 63 2 94 -7z m126 -29 c35 -11 71 -25 79 -31 12 -9 11 -9 -5
-3 -11 4 -54 17 -95 30 -41 13 -68 23 -59 23 9 1 45 -8 80 -19z m-1704 -72
c-3 -7 -5 -2 -5 12 0 14 2 19 5 13 2 -7 2 -19 0 -25z m1869 -3 c71 -46 145
-122 183 -191 44 -78 38 -81 -8 -4 -46 75 -112 143 -191 194 -30 20 -51 36
-47 36 4 0 33 -16 63 -35z m-1869 -107 c-2 -13 -4 -3 -4 22 0 25 2 35 4 23 2
-13 2 -33 0 -45z m2897 -85 c31 -95 66 -235 66 -260 -1 -10 -16 41 -34 112
-19 72 -41 150 -50 174 -17 47 -18 51 -12 51 2 0 16 -35 30 -77z m-2897 -65
c-2 -18 -4 -4 -4 32 0 36 2 50 4 33 2 -18 2 -48 0 -65z m2128 -135 c9 -40 15
-78 12 -85 -3 -7 -6 -4 -6 8 -1 18 -28 130 -45 189 -4 11 0 7 8 -10 8 -16 22
-62 31 -102z m-2128 -25 c-2 -18 -4 -4 -4 32 0 36 2 50 4 33 2 -18 2 -48 0
-65z m2970 -95 c-3 -10 -5 -4 -5 12 0 17 2 24 5 18 2 -7 2 -21 0 -30z m-2970
-65 c-2 -18 -4 -4 -4 32 0 36 2 50 4 33 2 -18 2 -48 0 -65z m2150 50 c-3 -7
-5 -2 -5 12 0 14 2 19 5 13 2 -7 2 -19 0 -25z m3276 5 c-7 -2 -21 -2 -30 0
-10 3 -4 5 12 5 17 0 24 -2 18 -5z m97 -18 c46 -18 28 -18 -35 0 -29 8 -39 14
-25 14 14 0 41 -7 60 -14z m-2543 -32 c-3 -10 -5 -4 -5 12 0 17 2 24 5 18 2
-7 2 -21 0 -30z m-820 -35 c-2 -13 -4 -3 -4 22 0 25 2 35 4 23 2 -13 2 -33 0
-45z m3518 5 c79 -40 138 -84 209 -158 73 -76 171 -232 190 -305 4 -14 -9 8
-28 48 -92 191 -222 330 -390 413 -55 28 -90 47 -76 43 14 -3 57 -22 95 -41z
m-2688 -45 c-2 -13 -4 -5 -4 17 -1 22 1 32 4 23 2 -10 2 -28 0 -40z m-820 -50
c-2 -13 -4 -3 -4 22 0 25 2 35 4 23 2 -13 2 -33 0 -45z m-2170 -25 c-2 -16 -4
-3 -4 27 0 30 2 43 4 28 2 -16 2 -40 0 -55z m3000 -30 c-2 -16 -4 -5 -4 22 0
28 2 40 4 28 2 -13 2 -35 0 -50z m1432 63 c-4 -4 -255 -115 -279 -122 -41 -14
39 26 145 72 107 48 147 62 134 50z m-2252 -178 c-2 -24 -4 -5 -4 42 0 47 2
66 4 43 2 -24 2 -62 0 -85z m-2180 45 c-2 -16 -4 -5 -4 22 0 28 2 40 4 28 2
-13 2 -35 0 -50z m3010 -115 c-2 -29 -3 -6 -3 52 0 58 1 81 3 53 2 -29 2 -77
0 -105z m1083 96 c-25 -14 -55 -30 -67 -35 -103 -39 -546 -304 -815 -486 -109
-73 -198 -127 -198 -120 0 8 6 14 13 14 6 0 96 56 198 125 214 145 475 304
669 407 74 39 155 83 180 96 60 33 77 32 20 -1z m-4093 -121 c-2 -16 -4 -3 -4
27 0 30 2 43 4 28 2 -16 2 -40 0 -55z m0 -70 c-3 -10 -5 -4 -5 12 0 17 2 24 5
18 2 -7 2 -21 0 -30z m3020 -45 c-3 -8 -6 -5 -6 6 -1 11 2 17 5 13 3 -3 4 -12
1 -19z m-3020 -40 c-3 -7 -5 -2 -5 12 0 14 2 19 5 13 2 -7 2 -19 0 -25z m6118
-64 c4 -25 3 -24 -8 6 -8 19 -17 46 -20 60 -5 19 -3 17 8 -6 7 -17 16 -44 20
-60z m-6118 -31 c-3 -10 -5 -2 -5 17 0 19 2 27 5 18 2 -10 2 -26 0 -35z m6152
-93 c0 -14 -6 -4 -14 25 -18 63 -18 81 0 35 7 -19 14 -46 14 -60z m-6152 3
c-2 -16 -4 -5 -4 22 0 28 2 40 4 28 2 -13 2 -35 0 -50z m6171 -103 c0 -22 -1
-22 -8 5 -4 17 -8 39 -8 50 0 16 2 15 8 -5 4 -14 8 -36 8 -50z m-6171 -37 c-2
-16 -4 -3 -4 27 0 30 2 43 4 28 2 -16 2 -40 0 -55z m6180 -40 c-3 -10 -5 -2
-5 17 0 19 2 27 5 18 2 -10 2 -26 0 -35z m-6180 -30 c-3 -10 -5 -4 -5 12 0 17
2 24 5 18 2 -7 2 -21 0 -30z m6190 -45 c-2 -13 -4 -5 -4 17 -1 22 1 32 4 23 2
-10 2 -28 0 -40z m-6190 -40 c-3 -7 -5 -2 -5 12 0 14 2 19 5 13 2 -7 2 -19 0
-25z m6200 -70 c-2 -18 -4 -6 -4 27 0 33 2 48 4 33 2 -15 2 -42 0 -60z m-6200
-25 c-3 -10 -5 -2 -5 17 0 19 2 27 5 18 2 -10 2 -26 0 -35z m0 -90 c-2 -16 -4
-5 -4 22 0 28 2 40 4 28 2 -13 2 -35 0 -50z m6210 -175 c-1 -46 -3 -11 -3 77
0 88 2 125 3 83 2 -42 2 -114 0 -160z m-6210 35 c-2 -16 -4 -3 -4 27 0 30 2
43 4 28 2 -16 2 -40 0 -55z m0 -100 c-2 -16 -4 -5 -4 22 0 28 2 40 4 28 2 -13
2 -35 0 -50z m6200 -100 c-2 -16 -4 -5 -4 22 0 28 2 40 4 28 2 -13 2 -35 0
-50z m-6200 -55 c-2 -18 -4 -4 -4 32 0 36 2 50 4 33 2 -18 2 -48 0 -65z m6190
-25 c-3 -10 -5 -2 -5 17 0 19 2 27 5 18 2 -10 2 -26 0 -35z m-22 -134 c-10
-49 -19 -88 -22 -86 -2 3 4 48 14 101 10 53 20 91 22 85 2 -6 -5 -51 -14 -100z
m-6168 -1 c-2 -18 -4 -4 -4 32 0 36 2 50 4 33 2 -18 2 -48 0 -65z m0 -160 c-2
-18 -4 -4 -4 32 0 36 2 50 4 33 2 -18 2 -48 0 -65z m6132 8 c-6 -26 -13 -45
-16 -43 -2 3 1 26 8 51 6 26 13 45 16 43 2 -3 -1 -26 -8 -51z m-35 -120 c-10
-31 -19 -54 -22 -52 -2 2 4 29 14 60 10 31 19 54 22 52 2 -2 -4 -29 -14 -60z
m-6097 -18 c-2 -13 -4 -3 -4 22 0 25 2 35 4 23 2 -13 2 -33 0 -45z m6068 -70
c-15 -50 -68 -178 -72 -174 -2 2 7 30 20 62 14 33 30 76 37 97 6 20 14 37 16
37 3 0 2 -10 -1 -22z m-6068 -20 c-3 -7 -5 -2 -5 12 0 14 2 19 5 13 2 -7 2
-19 0 -25z m0 -95 c-3 -10 -5 -2 -5 17 0 19 2 27 5 18 2 -10 2 -26 0 -35z m0
-90 c-2 -16 -4 -5 -4 22 0 28 2 40 4 28 2 -13 2 -35 0 -50z m0 -140 c-2 -16
-4 -3 -4 27 0 30 2 43 4 28 2 -16 2 -40 0 -55z m0 -70 c-3 -10 -5 -4 -5 12 0
17 2 24 5 18 2 -7 2 -21 0 -30z m0 -85 c-3 -7 -5 -2 -5 12 0 14 2 19 5 13 2
-7 2 -19 0 -25z m0 -80 c-3 -7 -5 -2 -5 12 0 14 2 19 5 13 2 -7 2 -19 0 -25z
m3010 -165 c-2 -32 -3 -6 -3 57 0 63 1 89 3 58 2 -32 2 -84 0 -115z m-3010 85
c-3 -7 -5 -2 -5 12 0 14 2 19 5 13 2 -7 2 -19 0 -25z m2180 -185 c-2 -32 -3
-6 -3 57 0 63 1 89 3 58 2 -32 2 -84 0 -115z m-2180 90 c-3 -10 -5 -2 -5 17 0
19 2 27 5 18 2 -10 2 -26 0 -35z m0 -90 c-2 -16 -4 -5 -4 22 0 28 2 40 4 28 2
-13 2 -35 0 -50z m3000 -50 c-2 -16 -4 -3 -4 27 0 30 2 43 4 28 2 -16 2 -40 0
-55z m-3000 -90 c-2 -16 -4 -3 -4 27 0 30 2 43 4 28 2 -16 2 -40 0 -55z m2170
-15 c-2 -18 -4 -6 -4 27 0 33 2 48 4 33 2 -15 2 -42 0 -60z m818 -13 c-4 -37
-9 -65 -11 -62 -3 2 -2 34 2 71 4 37 9 64 12 62 2 -3 1 -35 -3 -71z m-2988
-42 c-3 -10 -5 -4 -5 12 0 17 2 24 5 18 2 -7 2 -21 0 -30z m2160 -45 c-2 -13
-4 -5 -4 17 -1 22 1 32 4 23 2 -10 2 -28 0 -40z m810 -25 c-3 -10 -5 -4 -5 12
0 17 2 24 5 18 2 -7 2 -21 0 -30z m-2970 -15 c-3 -7 -5 -2 -5 12 0 14 2 19 5
13 2 -7 2 -19 0 -25z m2150 -35 c-3 -10 -5 -2 -5 17 0 19 2 27 5 18 2 -10 2
-26 0 -35z m810 -10 c-3 -10 -5 -4 -5 12 0 17 2 24 5 18 2 -7 2 -21 0 -30z
m-2960 -65 c-2 -13 -4 -3 -4 22 0 25 2 35 4 23 2 -13 2 -33 0 -45z m2133 -34
c-16 -78 -21 -63 -7 21 6 38 13 62 15 52 2 -9 -2 -42 -8 -73z m817 54 c-3 -8
-6 -5 -6 6 -1 11 2 17 5 13 3 -3 4 -12 1 -19z m-11 -55 c-9 -52 -58 -214 -63
-209 -3 2 7 39 20 83 14 43 28 97 32 121 4 23 9 42 12 42 3 0 2 -17 -1 -37z
m-2939 -115 c-2 -18 -4 -4 -4 32 0 36 2 50 4 33 2 -18 2 -48 0 -65z m2088 -25
c-64 -154 -168 -269 -300 -333 -44 -22 -93 -42 -110 -45 -16 -3 -6 4 22 14
184 68 306 187 379 368 16 39 31 69 33 67 2 -2 -9 -34 -24 -71z m-2085 -120
c0 -42 -3 -74 -6 -70 -7 7 -161 -182 -325 -399 -128 -169 -274 -383 -354 -517
-32 -54 -60 -96 -62 -94 -4 5 109 191 198 323 85 127 304 419 438 584 l101
125 0 62 c0 35 2 63 5 63 3 0 5 -34 5 -77z m2835 -60 c-103 -240 -250 -435
-420 -556 -72 -51 -298 -167 -325 -167 -8 1 10 11 40 24 100 41 234 115 300
165 164 124 305 316 401 548 19 45 36 80 38 77 2 -2 -13 -43 -34 -91z m-2838
-115 c-2 -18 -4 -4 -4 32 0 36 2 50 4 33 2 -18 2 -48 0 -65z m0 -145 c-2 -16
-4 -3 -4 27 0 30 2 43 4 28 2 -16 2 -40 0 -55z m1598 42 c-27 -7 -63 -13 -80
-13 -18 0 -6 5 30 13 78 16 114 16 50 0z m-137 -22 c-15 -2 -42 -2 -60 0 -18
2 -6 4 27 4 33 0 48 -2 33 -4z m-235 -10 c-7 -2 -21 -2 -30 0 -10 3 -4 5 12 5
17 0 24 -2 18 -5z m60 0 c-7 -2 -21 -2 -30 0 -10 3 -4 5 12 5 17 0 24 -2 18
-5z m-1286 -110 c-2 -16 -4 -5 -4 22 0 28 2 40 4 28 2 -13 2 -35 0 -50z m0
-140 c-2 -16 -4 -3 -4 27 0 30 2 43 4 28 2 -16 2 -40 0 -55z m0 -70 c-3 -10
-5 -4 -5 12 0 17 2 24 5 18 2 -7 2 -21 0 -30z m3908 -34 c-44 -21 -84 -38 -90
-38 -13 0 147 77 160 77 6 0 -26 -17 -70 -39z m-3908 -51 c-3 -7 -5 -2 -5 12
0 14 2 19 5 13 2 -7 2 -19 0 -25z m3783 -2 c-14 -7 -36 -16 -50 -20 -14 -3 -7
3 15 13 45 22 73 27 35 7z m-90 -35 c-23 -13 -280 -101 -293 -100 -13 0 281
107 298 108 6 0 3 -3 -5 -8z m-3693 -48 c-3 -10 -5 -4 -5 12 0 17 2 24 5 18 2
-7 2 -21 0 -30z m2038 1 c-46 -18 -256 -64 -283 -63 -9 0 42 13 113 29 72 15
141 33 155 38 14 6 32 11 40 11 8 0 -3 -7 -25 -15z m-1282 -87 l752 -2 -755 0
-755 0 -2 33 c-3 31 -3 31 3 2 l5 -30 752 -3z m2597 18 c-19 -7 -42 -13 -50
-13 -8 0 1 6 20 13 19 7 42 13 50 13 8 0 -1 -6 -20 -13z m-1637 -2 c-13 -2
-33 -2 -45 0 -13 2 -3 4 22 4 25 0 35 -2 23 -4z m-90 -10 c-13 -2 -35 -2 -50
0 -16 2 -5 4 22 4 28 0 40 -2 28 -4z m1656 -7 c-7 -7 -131 -37 -136 -33 -2 3
22 11 54 20 59 15 90 20 82 13z m-164 -46 c-11 -5 -29 -8 -40 -8 -16 0 -15 2
5 8 34 11 60 11 35 0z m-130 -30 c-38 -10 -79 -18 -90 -18 -11 0 12 8 50 18
39 10 79 18 90 18 11 0 -11 -8 -50 -18z m-122 -27 c-7 -2 -21 -2 -30 0 -10 3
-4 5 12 5 17 0 24 -2 18 -5z m-60 -10 c-7 -2 -19 -2 -25 0 -7 3 -2 5 12 5 14
0 19 -2 13 -5z m-50 -10 c-7 -2 -19 -2 -25 0 -7 3 -2 5 12 5 14 0 19 -2 13 -5z
m-55 -10 c-10 -2 -26 -2 -35 0 -10 3 -2 5 17 5 19 0 27 -2 18 -5z m-65 -10
c-7 -2 -21 -2 -30 0 -10 3 -4 5 12 5 17 0 24 -2 18 -5z m-65 -10 c-10 -2 -28
-2 -40 0 -13 2 -5 4 17 4 22 1 32 -1 23 -4z m-80 -10 c-10 -2 -28 -2 -40 0
-13 2 -5 4 17 4 22 1 32 -1 23 -4z m-85 -10 c-13 -2 -33 -2 -45 0 -13 2 -3 4
22 4 25 0 35 -2 23 -4z m-95 -10 c-16 -2 -40 -2 -55 0 -16 2 -3 4 27 4 30 0
43 -2 28 -4z m-121 -10 c-20 -2 -52 -2 -70 0 -17 2 0 4 38 4 39 0 53 -2 32 -4z
m-184 -10 c-35 -2 -91 -2 -125 0 -35 2 -7 3 62 3 69 0 97 -1 63 -3z m-980 -10
c-287 -2 -759 -2 -1050 0 -290 1 -55 2 522 2 578 0 815 -1 528 -2z m554 1 c-3
-3 -12 -4 -19 -1 -8 3 -5 6 6 6 11 1 17 -2 13 -5z"/>
</g>
</svg>
